<?xml version="1.0" standalone="no"?>
<!DOCTYPE svg PUBLIC "-//W3C//DTD SVG 20010904//EN"
 "http://www.w3.org/TR/2001/REC-SVG-20010904/DTD/svg10.dtd">
<svg version="1.0" xmlns="http://www.w3.org/2000/svg"
 width="48.000000pt" height="48.000000pt" viewBox="0 0 48.000000 48.000000"
 preserveAspectRatio="xMidYMid meet">

<g transform="translate(0.000000,48.000000) scale(0.100000,-0.100000)"
fill="#000000" stroke="none">
<path d="M145 446 c-60 -28 -87 -56 -114 -116 -38 -84 -24 -171 39 -243 106
-120 299 -98 372 42 53 100 32 212 -52 284 -73 62 -159 74 -245 33z m209 -20
c125 -73 144 -252 37 -349 -49 -44 -99 -60 -171 -55 -73 5 -129 40 -166 103
-52 90 -41 187 29 262 75 78 179 93 271 39z"/>
<path d="M165 416 c-16 -8 -41 -24 -55 -37 l-25 -24 33 -3 c33 -3 39 -11 22
-28 -8 -8 -2 -34 16 -85 15 -41 30 -78 34 -82 4 -5 15 12 23 37 18 52 6 110
-25 127 -35 19 -18 29 47 29 62 0 80 -9 52 -27 -10 -6 -5 -28 19 -97 l31 -90
16 49 c22 63 21 82 -4 129 -18 35 -19 40 -5 55 22 24 21 27 -24 45 -49 19
-114 20 -155 2z"/>
<path d="M418 290 c-6 -13 -53 -146 -73 -205 -4 -12 10 -2 34 23 22 24 43 58
46 76 8 40 2 126 -7 106z"/>
<path d="M50 243 c0 -27 9 -66 19 -88 18 -39 57 -83 66 -74 7 8 -67 209 -76
209 -5 0 -9 -21 -9 -47z"/>
<path d="M235 185 c-5 -11 -16 -42 -27 -68 -10 -26 -18 -52 -18 -57 0 -6 23
-10 50 -10 28 0 50 4 50 8 0 4 -11 39 -24 78 -19 55 -25 65 -31 49z"/>
</g>
</svg>
